<svg width="974" height="318" viewBox="0 0 974 318" fill="none" xmlns="http://www.w3.org/2000/svg">
<path d="M182.164 150.925H136.768L136.563 226.298C136.559 238.115 131.96 249.468 123.735 257.961C115.511 266.454 104.306 271.422 92.4842 271.817C80.6626 272.211 69.1503 268.001 60.377 260.075C51.6041 252.149 46.2568 241.128 45.464 229.337V150.788H0.205093L0 226.161C0 226.4 0 226.673 0 226.912C0.038115 250.637 9.35797 273.408 25.9699 290.362C42.5818 307.316 65.1697 317.111 88.9102 317.655C112.651 318.198 135.665 309.448 153.037 293.273C170.409 277.097 180.764 254.778 181.89 231.079L182.164 150.925Z" fill="#13BFAB"/>
<path d="M182.165 90.2731L151.809 59.9463L91.1001 120.6L30.3901 59.9121L0.0351562 90.2731L68.4703 158.645V241.77H113.866V158.508L182.165 90.2731Z" fill="#016EAE"/>
<path d="M79 84L91 72L103 84L91 96L79 84Z" fill="#13BFAB"/>
<path d="M91 72L103 60L115 72L103 84L91 72Z" fill="#13BFAB"/>
<path d="M103 60L115 48L127 60L115 72L103 60Z" fill="#13BFAB"/>
<path d="M115 48L127 36L139 48L127 60L115 48Z" fill="#13BFAB"/>
<path d="M67 24L79 12L91 24L79 36L67 24Z" fill="#13BFAB"/>
<path d="M108.657 41.6568L120.657 29.6568L132.657 41.6568L120.657 53.6568L108.657 41.6568Z" fill="#13BFAB"/>
<path d="M79 12L91 0L103 12L91 24L79 12Z" fill="#13BFAB"/>
<path d="M79.7694 47.9692L90.9694 36.7692L102.169 47.9692L90.9694 59.1692L79.7694 47.9692Z" fill="#13BFAB"/>
<path d="M85.3435 18.3432L97.3435 6.34322L109.344 18.3432L97.3435 30.3432L85.3435 18.3432Z" fill="#13BFAB"/>
<path d="M55 36L67 24L79 36L67 48L55 36Z" fill="#13BFAB"/>
<path d="M72.6564 77.6566L84.6564 65.6566L96.6564 77.6566L84.6564 89.6566L72.6564 77.6566Z" fill="#13BFAB"/>
<path d="M43 48L55 36L67 48L55 60L43 48Z" fill="#13BFAB"/>
<path d="M49.3428 54.3431L61.3428 42.3431L73.3428 54.3431L61.3428 66.3431L49.3428 54.3431Z" fill="#13BFAB"/>
<path d="M254.017 150.824L254.513 145.182H254.203L251.289 151.01L235.107 174.88H228.721V131.48H237.215V155.102L236.595 160.93H236.967L240.005 154.916L256.187 131.48H262.511V174.88H254.017V150.824Z" fill="#13BFAB"/>
<path d="M295.62 156.714H279.748V174.88H271.254V131.48H279.748V149.15H295.62V131.48H304.114V174.88H295.62V156.714Z" fill="#13BFAB"/>
<path d="M330.858 131.48H338.918V150.762L341.088 149.894L350.078 131.48H359.626L349.52 150.514L346.606 152.622L350.14 155.226L361.548 174.88H351.318L341.336 156.032H338.918V174.88H330.858V155.288L328.626 156.156L318.644 174.88H308.724L320.07 155.846L323.418 153.428L320.194 151.134L309.592 131.48H319.45L328.44 150.018H330.858V131.48Z" fill="#13BFAB"/>
<path d="M366.128 131.48H391.858V139.044H374.622V149.15H390.308V156.714H374.622V167.316H392.168V174.88H366.128V131.48Z" fill="#13BFAB"/>
<path d="M424.127 156.714H408.255V174.88H399.761V131.48H408.255V149.15H424.127V131.48H432.621V174.88H424.127V156.714Z" fill="#13BFAB"/>
<path d="M441.386 131.48H467.116V139.044H449.88V149.15H465.566V156.714H449.88V167.316H467.426V174.88H441.386V131.48Z" fill="#13BFAB"/>
<path d="M475.018 131.914C476.754 131.583 478.655 131.335 480.722 131.17C482.83 130.963 484.917 130.86 486.984 130.86C489.133 130.86 491.283 131.046 493.432 131.418C495.623 131.749 497.586 132.451 499.322 133.526C501.058 134.559 502.463 136.027 503.538 137.928C504.654 139.788 505.212 142.227 505.212 145.244C505.212 147.972 504.737 150.287 503.786 152.188C502.835 154.048 501.575 155.577 500.004 156.776C498.433 157.975 496.635 158.843 494.61 159.38C492.626 159.917 490.559 160.186 488.41 160.186C488.203 160.186 487.873 160.186 487.418 160.186C486.963 160.186 486.488 160.186 485.992 160.186C485.496 160.145 485 160.103 484.504 160.062C484.049 160.021 483.719 159.979 483.512 159.938V174.88H475.018V131.914ZM487.666 138.176C486.839 138.176 486.054 138.217 485.31 138.3C484.566 138.341 483.967 138.403 483.512 138.486V152.56C483.677 152.601 483.925 152.643 484.256 152.684C484.587 152.725 484.938 152.767 485.31 152.808C485.682 152.808 486.033 152.808 486.364 152.808C486.736 152.808 487.005 152.808 487.17 152.808C488.286 152.808 489.381 152.705 490.456 152.498C491.572 152.291 492.564 151.919 493.432 151.382C494.3 150.803 494.982 150.018 495.478 149.026C496.015 148.034 496.284 146.732 496.284 145.12C496.284 143.756 496.036 142.64 495.54 141.772C495.044 140.863 494.383 140.139 493.556 139.602C492.771 139.065 491.861 138.693 490.828 138.486C489.795 138.279 488.741 138.176 487.666 138.176Z" fill="#13BFAB"/>
<path d="M536.105 156.714H520.233V174.88H511.739V131.48H520.233V149.15H536.105V131.48H544.599V174.88H536.105V156.714Z" fill="#13BFAB"/>
<path d="M574.753 165.27H561.423L558.137 174.88H549.643L565.267 131.17H571.529L587.153 174.88H578.225L574.753 165.27ZM563.593 158.45H572.893L569.669 148.778L568.367 141.958H568.057L566.755 148.84L563.593 158.45Z" fill="#13BFAB"/>
<path d="M620.6 174.88H612.106V157.706L607.642 158.884L598.59 174.88H588.732L597.66 160.434L601.38 157.768C600.058 157.437 598.818 156.941 597.66 156.28C596.503 155.577 595.49 154.689 594.622 153.614C593.754 152.539 593.072 151.279 592.576 149.832C592.08 148.344 591.832 146.67 591.832 144.81C591.832 142.206 592.287 140.015 593.196 138.238C594.106 136.461 595.366 135.035 596.978 133.96C598.59 132.844 600.512 132.059 602.744 131.604C604.976 131.108 607.394 130.86 609.998 130.86C610.701 130.86 611.507 130.881 612.416 130.922C613.326 130.963 614.256 131.025 615.206 131.108C616.198 131.191 617.149 131.294 618.058 131.418C619.009 131.542 619.856 131.707 620.6 131.914V174.88ZM608.944 138.424C607.828 138.424 606.774 138.527 605.782 138.734C604.79 138.941 603.922 139.292 603.178 139.788C602.434 140.284 601.835 140.966 601.38 141.834C600.967 142.702 600.76 143.818 600.76 145.182C600.76 146.463 600.967 147.559 601.38 148.468C601.794 149.336 602.372 150.059 603.116 150.638C603.86 151.175 604.728 151.568 605.72 151.816C606.712 152.064 607.787 152.188 608.944 152.188H612.106V138.734C611.652 138.651 611.176 138.589 610.68 138.548C610.226 138.465 609.647 138.424 608.944 138.424Z" fill="#13BFAB"/>
<path d="M646.269 174.88V131.48H654.763V167.316H664.993V131.48H673.487V167.316H683.717V131.48H692.211V174.88H646.269Z" fill="#13BFAB"/>
<path d="M711.637 156.342H709.405V174.88H700.911V131.48H709.405V150.7L711.389 149.832L723.355 131.48H733.027L720.379 149.708L717.031 152.064L720.503 154.482L734.949 174.88H724.471L711.637 156.342Z" fill="#13BFAB"/>
<path d="M737.6 153.18C737.6 145.947 739.191 140.387 742.374 136.502C745.556 132.575 750.103 130.612 756.014 130.612C759.114 130.612 761.821 131.149 764.136 132.224C766.45 133.299 768.372 134.828 769.902 136.812C771.431 138.796 772.568 141.173 773.312 143.942C774.056 146.711 774.428 149.791 774.428 153.18C774.428 160.413 772.816 165.993 769.592 169.92C766.409 173.805 761.883 175.748 756.014 175.748C752.872 175.748 750.144 175.211 747.83 174.136C745.515 173.061 743.593 171.532 742.064 169.548C740.576 167.564 739.46 165.187 738.716 162.418C737.972 159.649 737.6 156.569 737.6 153.18ZM746.528 153.18C746.528 155.371 746.714 157.396 747.086 159.256C747.458 161.075 748.016 162.645 748.76 163.968C749.545 165.291 750.537 166.324 751.736 167.068C752.934 167.812 754.36 168.184 756.014 168.184C759.031 168.184 761.366 167.006 763.02 164.65C764.673 162.294 765.5 158.471 765.5 153.18C765.5 151.072 765.314 149.109 764.942 147.29C764.611 145.471 764.074 143.88 763.33 142.516C762.586 141.152 761.614 140.098 760.416 139.354C759.217 138.569 757.75 138.176 756.014 138.176C752.996 138.176 750.661 139.395 749.008 141.834C747.354 144.231 746.528 148.013 746.528 153.18Z" fill="#13BFAB"/>
<path d="M803.402 139.044H794.164C793.998 142.971 793.812 146.546 793.606 149.77C793.399 152.994 793.11 155.908 792.738 158.512C792.407 161.075 791.952 163.348 791.374 165.332C790.795 167.316 790.051 169.031 789.142 170.478C788.563 171.429 787.902 172.214 787.158 172.834C786.455 173.454 785.711 173.95 784.926 174.322C784.14 174.694 783.355 174.942 782.57 175.066C781.826 175.231 781.123 175.314 780.462 175.314C779.511 175.314 778.705 175.231 778.044 175.066C777.424 174.942 776.804 174.735 776.184 174.446L777.114 167.13C777.362 167.213 777.61 167.275 777.858 167.316C778.106 167.357 778.354 167.378 778.602 167.378C779.263 167.378 779.904 167.213 780.524 166.882C781.185 166.551 781.743 165.993 782.198 165.208C782.818 164.299 783.355 162.976 783.81 161.24C784.264 159.463 784.657 157.21 784.988 154.482C785.36 151.754 785.649 148.509 785.856 144.748C786.062 140.945 786.207 136.523 786.29 131.48H811.896V174.88H803.402V139.044Z" fill="#13BFAB"/>
<path d="M841.969 165.27H828.638L825.352 174.88H816.859L832.482 131.17H838.745L854.368 174.88H845.44L841.969 165.27ZM830.808 158.45H840.109L836.885 148.778L835.583 141.958H835.273L833.971 148.84L830.808 158.45Z" fill="#13BFAB"/>
<path d="M266.231 257.63H260.217L259.287 249.88H228.721V206.48H237.215V242.316H252.157V206.48H260.651V242.316H266.231V257.63Z" fill="#13BFAB"/>
<path d="M297.518 225.824L298.014 220.182H297.704L294.79 226.01L278.608 249.88H272.222V206.48H280.716V230.102L280.096 235.93H280.468L283.506 229.916L299.688 206.48H306.012V249.88H297.518V225.824Z" fill="#13BFAB"/>
<path d="M331.743 245.168C330.958 245.292 330.152 245.375 329.325 245.416C328.499 245.457 327.61 245.478 326.659 245.478C324.675 245.478 322.836 245.147 321.141 244.486C319.447 243.783 317.959 242.729 316.677 241.324C315.437 239.877 314.445 238.079 313.701 235.93C312.999 233.739 312.647 231.156 312.647 228.18C312.647 225.369 312.999 222.869 313.701 220.678C314.445 218.446 315.479 216.565 316.801 215.036C318.165 213.465 319.777 212.267 321.637 211.44C323.497 210.613 325.564 210.2 327.837 210.2C328.375 210.2 329.036 210.221 329.821 210.262C330.607 210.303 331.247 210.386 331.743 210.51V205.24H340.051V210.696C340.837 210.489 341.725 210.365 342.717 210.324C343.751 210.241 344.577 210.2 345.197 210.2C347.223 210.2 349.083 210.572 350.777 211.316C352.472 212.019 353.939 213.114 355.179 214.602C356.461 216.049 357.453 217.867 358.155 220.058C358.858 222.207 359.189 224.708 359.147 227.56C359.189 230.495 358.817 233.078 358.031 235.31C357.246 237.542 356.171 239.423 354.807 240.952C353.443 242.44 351.852 243.577 350.033 244.362C348.256 245.106 346.334 245.478 344.267 245.478C343.606 245.478 342.883 245.457 342.097 245.416C341.353 245.333 340.671 245.209 340.051 245.044V251.12H331.743V245.168ZM343.213 217.02C342.8 217.061 342.242 217.103 341.539 217.144C340.837 217.185 340.237 217.268 339.741 217.392V238.472C340.113 238.555 340.547 238.596 341.043 238.596C341.581 238.596 342.077 238.617 342.531 238.658C343.689 238.617 344.763 238.389 345.755 237.976C346.747 237.563 347.615 236.901 348.359 235.992C349.103 235.083 349.682 233.946 350.095 232.582C350.509 231.218 350.695 229.565 350.653 227.622C350.695 224.315 350.054 221.732 348.731 219.872C347.409 218.012 345.569 217.061 343.213 217.02ZM328.829 238.596C329.16 238.596 329.656 238.596 330.317 238.596C331.02 238.555 331.599 238.451 332.053 238.286V217.268C331.64 217.185 331.165 217.144 330.627 217.144C330.09 217.103 329.594 217.082 329.139 217.082C326.866 217.082 324.965 217.971 323.435 219.748C321.906 221.484 321.141 224.274 321.141 228.118C321.141 231.466 321.844 234.049 323.249 235.868C324.655 237.687 326.515 238.596 328.829 238.596Z" fill="#13BFAB"/>
<path d="M365.704 206.914C367.44 206.583 369.342 206.335 371.408 206.17C373.516 205.963 375.604 205.86 377.67 205.86C379.82 205.86 381.969 206.046 384.118 206.418C386.309 206.749 388.272 207.451 390.008 208.526C391.744 209.559 393.15 211.027 394.224 212.928C395.34 214.788 395.898 217.227 395.898 220.244C395.898 222.972 395.423 225.287 394.472 227.188C393.522 229.048 392.261 230.577 390.69 231.776C389.12 232.975 387.322 233.843 385.296 234.38C383.312 234.917 381.246 235.186 379.096 235.186C378.89 235.186 378.559 235.186 378.104 235.186C377.65 235.186 377.174 235.186 376.678 235.186C376.182 235.145 375.686 235.103 375.19 235.062C374.736 235.021 374.405 234.979 374.198 234.938V249.88H365.704V206.914ZM378.352 213.176C377.526 213.176 376.74 213.217 375.996 213.3C375.252 213.341 374.653 213.403 374.198 213.486V227.56C374.364 227.601 374.612 227.643 374.942 227.684C375.273 227.725 375.624 227.767 375.996 227.808C376.368 227.808 376.72 227.808 377.05 227.808C377.422 227.808 377.691 227.808 377.856 227.808C378.972 227.808 380.068 227.705 381.142 227.498C382.258 227.291 383.25 226.919 384.118 226.382C384.986 225.803 385.668 225.018 386.164 224.026C386.702 223.034 386.97 221.732 386.97 220.12C386.97 218.756 386.722 217.64 386.226 216.772C385.73 215.863 385.069 215.139 384.242 214.602C383.457 214.065 382.548 213.693 381.514 213.486C380.481 213.279 379.427 213.176 378.352 213.176Z" fill="#13BFAB"/>
<path d="M400.395 228.18C400.395 220.947 401.986 215.387 405.169 211.502C408.352 207.575 412.898 205.612 418.809 205.612C421.909 205.612 424.616 206.149 426.931 207.224C429.245 208.299 431.168 209.828 432.697 211.812C434.226 213.796 435.363 216.173 436.107 218.942C436.851 221.711 437.223 224.791 437.223 228.18C437.223 235.413 435.611 240.993 432.387 244.92C429.204 248.805 424.678 250.748 418.809 250.748C415.668 250.748 412.939 250.211 410.625 249.136C408.31 248.061 406.388 246.532 404.859 244.548C403.371 242.564 402.255 240.187 401.511 237.418C400.767 234.649 400.395 231.569 400.395 228.18ZM409.323 228.18C409.323 230.371 409.509 232.396 409.881 234.256C410.253 236.075 410.811 237.645 411.555 238.968C412.34 240.291 413.332 241.324 414.531 242.068C415.73 242.812 417.156 243.184 418.809 243.184C421.826 243.184 424.161 242.006 425.815 239.65C427.468 237.294 428.295 233.471 428.295 228.18C428.295 226.072 428.109 224.109 427.737 222.29C427.406 220.471 426.869 218.88 426.125 217.516C425.381 216.152 424.41 215.098 423.211 214.354C422.012 213.569 420.545 213.176 418.809 213.176C415.792 213.176 413.456 214.395 411.803 216.834C410.15 219.231 409.323 223.013 409.323 228.18Z" fill="#13BFAB"/>
<path d="M473.736 216.586C473.736 217.661 473.591 218.735 473.302 219.81C473.054 220.885 472.62 221.877 472 222.786C471.38 223.654 470.574 224.439 469.582 225.142C468.59 225.803 467.391 226.299 465.986 226.63V227.002C467.226 227.209 468.404 227.56 469.52 228.056C470.636 228.552 471.607 229.234 472.434 230.102C473.261 230.97 473.901 232.024 474.356 233.264C474.852 234.504 475.1 235.971 475.1 237.666C475.1 239.898 474.625 241.841 473.674 243.494C472.723 245.106 471.442 246.429 469.83 247.462C468.259 248.495 466.461 249.26 464.436 249.756C462.411 250.252 460.323 250.5 458.174 250.5C457.471 250.5 456.562 250.5 455.446 250.5C454.371 250.5 453.193 250.459 451.912 250.376C450.672 250.335 449.391 250.252 448.068 250.128C446.787 250.004 445.609 249.818 444.534 249.57V206.79C445.319 206.666 446.208 206.542 447.2 206.418C448.233 206.294 449.329 206.191 450.486 206.108C451.643 206.025 452.821 205.963 454.02 205.922C455.26 205.881 456.479 205.86 457.678 205.86C459.703 205.86 461.667 206.025 463.568 206.356C465.511 206.645 467.226 207.183 468.714 207.968C470.243 208.753 471.463 209.849 472.372 211.254C473.281 212.659 473.736 214.437 473.736 216.586ZM458.236 243.494C459.269 243.494 460.261 243.37 461.212 243.122C462.204 242.874 463.072 242.502 463.816 242.006C464.56 241.469 465.159 240.807 465.614 240.022C466.069 239.237 466.296 238.307 466.296 237.232C466.296 235.868 466.027 234.793 465.49 234.008C464.953 233.223 464.25 232.623 463.382 232.21C462.514 231.755 461.543 231.466 460.468 231.342C459.393 231.218 458.319 231.156 457.244 231.156H452.718V243.122C452.925 243.205 453.255 243.267 453.71 243.308C454.165 243.349 454.64 243.391 455.136 243.432C455.673 243.432 456.211 243.453 456.748 243.494C457.327 243.494 457.823 243.494 458.236 243.494ZM455.446 224.708C456.025 224.708 456.686 224.687 457.43 224.646C458.215 224.605 458.856 224.543 459.352 224.46C460.923 223.964 462.266 223.22 463.382 222.228C464.539 221.236 465.118 219.934 465.118 218.322C465.118 217.247 464.911 216.359 464.498 215.656C464.085 214.953 463.527 214.395 462.824 213.982C462.163 213.569 461.398 213.279 460.53 213.114C459.662 212.949 458.753 212.866 457.802 212.866C456.727 212.866 455.735 212.887 454.826 212.928C453.917 212.969 453.214 213.031 452.718 213.114V224.708H455.446Z" fill="#13BFAB"/>
<path d="M515.885 206.48H524.379V249.88H515.885V206.48ZM482.405 206.48H490.899V222.042C491.354 221.959 492.077 221.856 493.069 221.732C494.061 221.608 495.032 221.546 495.983 221.546C498.05 221.546 500.013 221.753 501.873 222.166C503.774 222.579 505.428 223.323 506.833 224.398C508.238 225.431 509.354 226.857 510.181 228.676C511.008 230.453 511.421 232.706 511.421 235.434C511.421 240.477 509.954 244.259 507.019 246.78C504.084 249.26 499.724 250.5 493.937 250.5C493.358 250.5 492.614 250.479 491.705 250.438C490.796 250.438 489.804 250.397 488.729 250.314C487.696 250.231 486.621 250.128 485.505 250.004C484.389 249.88 483.356 249.694 482.405 249.446V206.48ZM494.557 242.936C496.913 242.936 498.814 242.399 500.261 241.324C501.749 240.208 502.493 238.369 502.493 235.806C502.493 234.442 502.286 233.326 501.873 232.458C501.46 231.59 500.902 230.908 500.199 230.412C499.496 229.916 498.669 229.585 497.719 229.42C496.768 229.213 495.735 229.11 494.619 229.11C494.04 229.11 493.358 229.172 492.573 229.296C491.788 229.379 491.229 229.482 490.899 229.606V242.564C491.354 242.688 491.891 242.791 492.511 242.874C493.172 242.915 493.854 242.936 494.557 242.936Z" fill="#13BFAB"/>
<path d="M543.342 227.808L531.252 206.48H541.482L548.178 219.004L549.666 223.406L551.092 219.004L558.098 206.48H567.336L554.812 227.374L567.956 249.88H557.85L550.224 236.488L548.55 231.9L546.938 236.488L539.25 249.88H530.012L543.342 227.808Z" fill="#13BFAB"/>
<path d="M618.294 214.044H605.646V249.88H597.152V214.044H584.442V206.48H618.294V214.044Z" fill="#13BFAB"/>
<path d="M623.959 206.48H649.689V214.044H632.453V224.15H648.139V231.714H632.453V242.316H649.999V249.88H623.959V206.48Z" fill="#13BFAB"/>
<path d="M667.821 227.808L655.731 206.48H665.961L672.657 219.004L674.145 223.406L675.571 219.004L682.577 206.48H691.815L679.291 227.374L692.435 249.88H682.329L674.703 236.488L673.029 231.9L671.417 236.488L663.729 249.88H654.491L667.821 227.808Z" fill="#13BFAB"/>
<path d="M722.432 231.714H706.56V249.88H698.066V206.48H706.56V224.15H722.432V206.48H730.926V249.88H722.432V231.714Z" fill="#13BFAB"/>
<path d="M738.326 228.18C738.326 220.947 739.918 215.387 743.1 211.502C746.283 207.575 750.83 205.612 756.74 205.612C759.84 205.612 762.548 206.149 764.862 207.224C767.177 208.299 769.099 209.828 770.628 211.812C772.158 213.796 773.294 216.173 774.038 218.942C774.782 221.711 775.154 224.791 775.154 228.18C775.154 235.413 773.542 240.993 770.318 244.92C767.136 248.805 762.61 250.748 756.74 250.748C753.599 250.748 750.871 250.211 748.556 249.136C746.242 248.061 744.32 246.532 742.79 244.548C741.302 242.564 740.186 240.187 739.442 237.418C738.698 234.649 738.326 231.569 738.326 228.18ZM747.254 228.18C747.254 230.371 747.44 232.396 747.812 234.256C748.184 236.075 748.742 237.645 749.486 238.968C750.272 240.291 751.264 241.324 752.462 242.068C753.661 242.812 755.087 243.184 756.74 243.184C759.758 243.184 762.093 242.006 763.746 239.65C765.4 237.294 766.226 233.471 766.226 228.18C766.226 226.072 766.04 224.109 765.668 222.29C765.338 220.471 764.8 218.88 764.056 217.516C763.312 216.152 762.341 215.098 761.142 214.354C759.944 213.569 758.476 213.176 756.74 213.176C753.723 213.176 751.388 214.395 749.734 216.834C748.081 219.231 747.254 223.013 747.254 228.18Z" fill="#13BFAB"/>
<path d="M804.128 214.044H794.89C794.725 217.971 794.539 221.546 794.332 224.77C794.125 227.994 793.836 230.908 793.464 233.512C793.133 236.075 792.679 238.348 792.1 240.332C791.521 242.316 790.778 244.031 789.868 245.478C789.289 246.429 788.628 247.214 787.884 247.834C787.182 248.454 786.438 248.95 785.652 249.322C784.867 249.694 784.081 249.942 783.296 250.066C782.552 250.231 781.849 250.314 781.188 250.314C780.237 250.314 779.431 250.231 778.77 250.066C778.15 249.942 777.53 249.735 776.91 249.446L777.84 242.13C778.088 242.213 778.336 242.275 778.584 242.316C778.832 242.357 779.08 242.378 779.328 242.378C779.99 242.378 780.63 242.213 781.25 241.882C781.911 241.551 782.469 240.993 782.924 240.208C783.544 239.299 784.081 237.976 784.536 236.24C784.991 234.463 785.383 232.21 785.714 229.482C786.086 226.754 786.375 223.509 786.582 219.748C786.789 215.945 786.934 211.523 787.016 206.48H812.622V249.88H804.128V214.044Z" fill="#13BFAB"/>
<path d="M819.941 228.18C819.941 220.947 821.532 215.387 824.715 211.502C827.898 207.575 832.444 205.612 838.355 205.612C841.455 205.612 844.162 206.149 846.477 207.224C848.792 208.299 850.714 209.828 852.243 211.812C853.772 213.796 854.909 216.173 855.653 218.942C856.397 221.711 856.769 224.791 856.769 228.18C856.769 235.413 855.157 240.993 851.933 244.92C848.75 248.805 844.224 250.748 838.355 250.748C835.214 250.748 832.486 250.211 830.171 249.136C827.856 248.061 825.934 246.532 824.405 244.548C822.917 242.564 821.801 240.187 821.057 237.418C820.313 234.649 819.941 231.569 819.941 228.18ZM828.869 228.18C828.869 230.371 829.055 232.396 829.427 234.256C829.799 236.075 830.357 237.645 831.101 238.968C831.886 240.291 832.878 241.324 834.077 242.068C835.276 242.812 836.702 243.184 838.355 243.184C841.372 243.184 843.708 242.006 845.361 239.65C847.014 237.294 847.841 233.471 847.841 228.18C847.841 226.072 847.655 224.109 847.283 222.29C846.952 220.471 846.415 218.88 845.671 217.516C844.927 216.152 843.956 215.098 842.757 214.354C841.558 213.569 840.091 213.176 838.355 213.176C835.338 213.176 833.002 214.395 831.349 216.834C829.696 219.231 828.869 223.013 828.869 228.18Z" fill="#13BFAB"/>
<path d="M889.314 214.044H872.574V249.88H864.08V206.48H889.314V214.044Z" fill="#13BFAB"/>
<path d="M919.013 225.824L919.509 220.182H919.199L916.285 226.01L900.103 249.88H893.717V206.48H902.211V230.102L901.591 235.93H901.963L905.001 229.916L921.183 206.48H927.507V249.88H919.013V225.824Z" fill="#13BFAB"/>
<path d="M961.546 225.824L962.042 220.182H961.732L958.818 226.01L942.636 249.88H936.25V206.48H944.744V230.102L944.124 235.93H944.496L947.534 229.916L963.716 206.48H970.04V249.88H961.546V225.824ZM949.456 195.692C949.621 197.015 950.096 197.965 950.882 198.544C951.708 199.123 952.762 199.412 954.044 199.412C956.813 199.412 958.342 198.193 958.632 195.754L965.514 196.808C965.059 199.412 963.86 201.313 961.918 202.512C960.016 203.711 957.371 204.31 953.982 204.31C952.287 204.31 950.737 204.186 949.332 203.938C947.926 203.69 946.686 203.297 945.612 202.76C944.578 202.181 943.71 201.417 943.008 200.466C942.346 199.515 941.933 198.337 941.768 196.932L949.456 195.692Z" fill="#13BFAB"/>
<mask id="path-5-outside-1_26_373" maskUnits="userSpaceOnUse" x="228.215" y="60" width="384" height="42" fill="black">
<rect fill="white" x="228.215" y="60" width="384" height="42"/>
<path d="M245.847 95.668C245.235 95.776 244.515 95.848 243.687 95.884C242.895 95.92 242.139 95.938 241.419 95.938C239.727 95.938 238.125 95.65 236.613 95.074C235.137 94.498 233.841 93.598 232.725 92.374C231.645 91.15 230.781 89.602 230.133 87.73C229.521 85.822 229.215 83.572 229.215 80.98C229.215 78.532 229.521 76.354 230.133 74.446C230.781 72.502 231.681 70.864 232.833 69.532C234.021 68.2 235.425 67.192 237.045 66.508C238.665 65.788 240.465 65.428 242.445 65.428C242.913 65.428 243.489 65.446 244.173 65.482C244.893 65.518 245.451 65.572 245.847 65.644V61H250.275V65.806C250.923 65.626 251.679 65.518 252.543 65.482C253.443 65.446 254.181 65.428 254.757 65.428C256.485 65.428 258.087 65.752 259.563 66.4C261.039 67.012 262.317 67.948 263.397 69.208C264.513 70.432 265.377 71.998 265.989 73.906C266.601 75.778 266.907 77.956 266.907 80.44C266.907 82.996 266.547 85.246 265.827 87.19C265.143 89.134 264.207 90.754 263.019 92.05C261.831 93.346 260.445 94.318 258.861 94.966C257.277 95.614 255.585 95.938 253.785 95.938C253.389 95.938 252.795 95.92 252.003 95.884C251.247 95.812 250.671 95.704 250.275 95.56V100.96H245.847V95.668ZM254.109 69.208C253.605 69.208 252.957 69.226 252.165 69.262C251.373 69.298 250.725 69.406 250.221 69.586V91.996C250.581 92.068 251.049 92.122 251.625 92.158C252.237 92.158 252.831 92.158 253.407 92.158C254.631 92.158 255.765 91.924 256.809 91.456C257.889 90.988 258.825 90.268 259.617 89.296C260.445 88.324 261.093 87.1 261.561 85.624C262.029 84.148 262.263 82.42 262.263 80.44C262.263 78.784 262.065 77.272 261.669 75.904C261.309 74.5 260.769 73.294 260.049 72.286C259.365 71.278 258.519 70.522 257.511 70.018C256.503 69.478 255.369 69.208 254.109 69.208ZM242.229 92.158C242.409 92.158 242.643 92.158 242.931 92.158C243.255 92.158 243.597 92.158 243.957 92.158C244.317 92.122 244.659 92.086 244.983 92.05C245.343 91.978 245.649 91.906 245.901 91.834V69.424C245.469 69.352 244.929 69.298 244.281 69.262C243.669 69.226 243.111 69.208 242.607 69.208C241.383 69.208 240.231 69.46 239.151 69.964C238.107 70.432 237.189 71.17 236.397 72.178C235.605 73.15 234.975 74.374 234.507 75.85C234.075 77.326 233.859 79.036 233.859 80.98C233.859 82.708 234.057 84.274 234.453 85.678C234.849 87.046 235.407 88.216 236.127 89.188C236.883 90.16 237.765 90.898 238.773 91.402C239.817 91.906 240.969 92.158 242.229 92.158Z"/>
<path d="M296.136 66.076H280.368V99.88H275.886V62.08H296.136V66.076Z"/>
<path d="M301.934 62.08H322.454V66.076H306.416V77.416C307.028 77.308 307.784 77.2 308.684 77.092C309.584 76.984 310.448 76.93 311.276 76.93C313.112 76.93 314.858 77.11 316.514 77.47C318.17 77.794 319.628 78.37 320.888 79.198C322.148 80.026 323.138 81.16 323.858 82.6C324.614 84.004 324.992 85.786 324.992 87.946C324.992 90.106 324.614 91.978 323.858 93.562C323.102 95.11 322.094 96.388 320.834 97.396C319.574 98.368 318.098 99.106 316.406 99.61C314.75 100.078 313.004 100.312 311.168 100.312C310.556 100.312 309.854 100.294 309.062 100.258C308.306 100.258 307.496 100.222 306.632 100.15C305.804 100.078 304.976 99.988 304.148 99.88C303.356 99.808 302.618 99.682 301.934 99.502V62.08ZM311.708 96.424C312.86 96.424 313.958 96.262 315.002 95.938C316.046 95.614 316.946 95.146 317.702 94.534C318.494 93.886 319.106 93.076 319.538 92.104C320.006 91.132 320.24 89.998 320.24 88.702C320.24 87.046 319.97 85.714 319.43 84.706C318.926 83.662 318.242 82.852 317.378 82.276C316.514 81.7 315.506 81.322 314.354 81.142C313.238 80.926 312.068 80.818 310.844 80.818C310.52 80.818 310.142 80.836 309.71 80.872C309.278 80.908 308.846 80.944 308.414 80.98C307.982 81.016 307.586 81.07 307.226 81.142C306.866 81.178 306.596 81.214 306.416 81.25V96.1C306.668 96.172 306.992 96.226 307.388 96.262C307.82 96.298 308.27 96.334 308.738 96.37C309.242 96.406 309.746 96.424 310.25 96.424C310.754 96.424 311.24 96.424 311.708 96.424Z"/>
<path d="M332.218 80.98C332.218 74.68 333.55 69.856 336.214 66.508C338.878 63.124 342.676 61.432 347.608 61.432C350.272 61.432 352.576 61.9 354.52 62.836C356.464 63.772 358.066 65.104 359.326 66.832C360.622 68.524 361.576 70.576 362.188 72.988C362.8 75.364 363.106 78.028 363.106 80.98C363.106 87.28 361.756 92.122 359.056 95.506C356.392 98.854 352.576 100.528 347.608 100.528C344.98 100.528 342.694 100.06 340.75 99.124C338.842 98.188 337.24 96.874 335.944 95.182C334.684 93.454 333.748 91.402 333.136 89.026C332.524 86.614 332.218 83.932 332.218 80.98ZM336.97 80.98C336.97 83.068 337.168 85.048 337.564 86.92C337.996 88.792 338.644 90.448 339.508 91.888C340.372 93.292 341.47 94.426 342.802 95.29C344.17 96.118 345.772 96.532 347.608 96.532C350.956 96.532 353.584 95.272 355.492 92.752C357.4 90.196 358.354 86.272 358.354 80.98C358.354 78.928 358.138 76.966 357.706 75.094C357.31 73.186 356.662 71.53 355.762 70.126C354.898 68.686 353.782 67.552 352.414 66.724C351.082 65.86 349.48 65.428 347.608 65.428C344.296 65.428 341.686 66.706 339.778 69.262C337.906 71.782 336.97 75.688 336.97 80.98Z"/>
<path d="M382.072 82.006L383.476 86.812H383.746L384.826 81.844L392.062 62.08H396.652L387.094 86.65C386.122 89.206 385.258 91.348 384.502 93.076C383.782 94.768 383.044 96.154 382.288 97.234C381.532 98.278 380.722 99.034 379.858 99.502C378.994 99.934 377.932 100.15 376.672 100.15C375.484 100.15 374.53 100.06 373.81 99.88C373.126 99.664 372.478 99.358 371.866 98.962L373.216 95.236C373.936 95.632 374.602 95.884 375.214 95.992C375.826 96.1 376.384 96.154 376.888 96.154C377.896 96.154 378.742 95.65 379.426 94.642C380.11 93.598 380.704 92.068 381.208 90.052L367.222 62.08H372.406L382.072 82.006Z"/>
<path d="M441.151 70.72C441.151 71.62 441.007 72.538 440.719 73.474C440.431 74.41 439.999 75.292 439.423 76.12C438.847 76.912 438.109 77.614 437.209 78.226C436.309 78.838 435.247 79.306 434.023 79.63V79.846C435.103 80.026 436.129 80.332 437.101 80.764C438.109 81.196 438.991 81.79 439.747 82.546C440.503 83.302 441.115 84.22 441.583 85.3C442.051 86.38 442.285 87.658 442.285 89.134C442.285 91.078 441.871 92.77 441.043 94.21C440.251 95.614 439.189 96.766 437.857 97.666C436.561 98.566 435.067 99.232 433.375 99.664C431.683 100.096 429.955 100.312 428.191 100.312C427.579 100.312 426.859 100.312 426.031 100.312C425.203 100.312 424.339 100.276 423.439 100.204C422.539 100.168 421.639 100.096 420.739 99.988C419.839 99.916 419.047 99.79 418.363 99.61V62.404C419.695 62.188 421.243 62.008 423.007 61.864C424.771 61.72 426.697 61.648 428.785 61.648C430.189 61.648 431.611 61.774 433.051 62.026C434.527 62.242 435.859 62.692 437.047 63.376C438.235 64.024 439.207 64.942 439.963 66.13C440.755 67.318 441.151 68.848 441.151 70.72ZM428.623 96.424C429.775 96.424 430.891 96.298 431.971 96.046C433.051 95.758 434.005 95.326 434.833 94.75C435.661 94.138 436.309 93.4 436.777 92.536C437.281 91.672 437.533 90.646 437.533 89.458C437.533 87.982 437.227 86.794 436.615 85.894C436.039 84.994 435.265 84.292 434.293 83.788C433.357 83.284 432.295 82.942 431.107 82.762C429.919 82.582 428.731 82.492 427.543 82.492H422.845V96.046C423.097 96.118 423.457 96.172 423.925 96.208C424.393 96.244 424.897 96.28 425.437 96.316C425.977 96.352 426.535 96.388 427.111 96.424C427.687 96.424 428.191 96.424 428.623 96.424ZM425.653 78.712C426.265 78.712 427.003 78.694 427.867 78.658C428.731 78.622 429.451 78.568 430.027 78.496C430.891 78.208 431.701 77.866 432.457 77.47C433.213 77.038 433.879 76.552 434.455 76.012C435.067 75.436 435.535 74.788 435.859 74.068C436.219 73.312 436.399 72.502 436.399 71.638C436.399 70.45 436.165 69.478 435.697 68.722C435.265 67.93 434.671 67.3 433.915 66.832C433.159 66.364 432.295 66.04 431.323 65.86C430.351 65.644 429.361 65.536 428.353 65.536C427.165 65.536 426.067 65.572 425.059 65.644C424.087 65.68 423.349 65.752 422.845 65.86V78.712H425.653Z"/>
<path d="M450.492 80.98C450.492 74.68 451.824 69.856 454.488 66.508C457.152 63.124 460.95 61.432 465.882 61.432C468.546 61.432 470.85 61.9 472.794 62.836C474.738 63.772 476.34 65.104 477.6 66.832C478.896 68.524 479.85 70.576 480.462 72.988C481.074 75.364 481.38 78.028 481.38 80.98C481.38 87.28 480.03 92.122 477.33 95.506C474.666 98.854 470.85 100.528 465.882 100.528C463.254 100.528 460.968 100.06 459.024 99.124C457.116 98.188 455.514 96.874 454.218 95.182C452.958 93.454 452.022 91.402 451.41 89.026C450.798 86.614 450.492 83.932 450.492 80.98ZM455.244 80.98C455.244 83.068 455.443 85.048 455.839 86.92C456.271 88.792 456.919 90.448 457.783 91.888C458.647 93.292 459.744 94.426 461.076 95.29C462.444 96.118 464.046 96.532 465.882 96.532C469.23 96.532 471.858 95.272 473.766 92.752C475.674 90.196 476.628 86.272 476.628 80.98C476.628 78.928 476.413 76.966 475.98 75.094C475.585 73.186 474.936 71.53 474.036 70.126C473.172 68.686 472.056 67.552 470.688 66.724C469.356 65.86 467.754 65.428 465.882 65.428C462.57 65.428 459.96 66.706 458.052 69.262C456.18 71.782 455.244 75.688 455.244 80.98Z"/>
<path d="M512.171 78.55H518.867C519.155 73.042 520.541 68.812 523.025 65.86C525.509 62.908 529.055 61.432 533.663 61.432C536.291 61.432 538.541 61.9 540.413 62.836C542.285 63.772 543.797 65.104 544.949 66.832C546.101 68.524 546.947 70.576 547.487 72.988C548.027 75.364 548.297 78.028 548.297 80.98C548.297 87.28 547.091 92.122 544.679 95.506C542.267 98.854 538.595 100.528 533.663 100.528C531.179 100.528 529.019 100.114 527.183 99.286C525.347 98.422 523.817 97.216 522.593 95.668C521.405 94.084 520.505 92.194 519.893 89.998C519.281 87.766 518.921 85.282 518.813 82.546H512.171V99.88H507.689V62.08H512.171V78.55ZM523.565 80.98C523.565 83.068 523.745 85.048 524.105 86.92C524.465 88.792 525.041 90.448 525.833 91.888C526.625 93.292 527.651 94.426 528.911 95.29C530.207 96.118 531.791 96.532 533.663 96.532C537.011 96.532 539.495 95.272 541.115 92.752C542.735 90.232 543.545 86.308 543.545 80.98C543.545 78.928 543.383 76.966 543.059 75.094C542.735 73.186 542.177 71.53 541.385 70.126C540.629 68.686 539.621 67.552 538.361 66.724C537.101 65.86 535.535 65.428 533.663 65.428C530.315 65.428 527.795 66.706 526.103 69.262C524.411 71.782 523.565 75.688 523.565 80.98Z"/>
<path d="M578.298 66.076H562.53V99.88H558.048V62.08H578.298V66.076Z"/>
<path d="M596.37 82.006L597.774 86.812H598.044L599.124 81.844L606.36 62.08H610.95L601.392 86.65C600.42 89.206 599.556 91.348 598.8 93.076C598.08 94.768 597.342 96.154 596.586 97.234C595.83 98.278 595.02 99.034 594.156 99.502C593.292 99.934 592.23 100.15 590.97 100.15C589.782 100.15 588.828 100.06 588.108 99.88C587.424 99.664 586.776 99.358 586.164 98.962L587.514 95.236C588.234 95.632 588.9 95.884 589.512 95.992C590.124 96.1 590.682 96.154 591.186 96.154C592.194 96.154 593.04 95.65 593.724 94.642C594.408 93.598 595.002 92.068 595.506 90.052L581.52 62.08H586.704L596.37 82.006Z"/>
</mask>
<path d="M245.847 95.668C245.235 95.776 244.515 95.848 243.687 95.884C242.895 95.92 242.139 95.938 241.419 95.938C239.727 95.938 238.125 95.65 236.613 95.074C235.137 94.498 233.841 93.598 232.725 92.374C231.645 91.15 230.781 89.602 230.133 87.73C229.521 85.822 229.215 83.572 229.215 80.98C229.215 78.532 229.521 76.354 230.133 74.446C230.781 72.502 231.681 70.864 232.833 69.532C234.021 68.2 235.425 67.192 237.045 66.508C238.665 65.788 240.465 65.428 242.445 65.428C242.913 65.428 243.489 65.446 244.173 65.482C244.893 65.518 245.451 65.572 245.847 65.644V61H250.275V65.806C250.923 65.626 251.679 65.518 252.543 65.482C253.443 65.446 254.181 65.428 254.757 65.428C256.485 65.428 258.087 65.752 259.563 66.4C261.039 67.012 262.317 67.948 263.397 69.208C264.513 70.432 265.377 71.998 265.989 73.906C266.601 75.778 266.907 77.956 266.907 80.44C266.907 82.996 266.547 85.246 265.827 87.19C265.143 89.134 264.207 90.754 263.019 92.05C261.831 93.346 260.445 94.318 258.861 94.966C257.277 95.614 255.585 95.938 253.785 95.938C253.389 95.938 252.795 95.92 252.003 95.884C251.247 95.812 250.671 95.704 250.275 95.56V100.96H245.847V95.668ZM254.109 69.208C253.605 69.208 252.957 69.226 252.165 69.262C251.373 69.298 250.725 69.406 250.221 69.586V91.996C250.581 92.068 251.049 92.122 251.625 92.158C252.237 92.158 252.831 92.158 253.407 92.158C254.631 92.158 255.765 91.924 256.809 91.456C257.889 90.988 258.825 90.268 259.617 89.296C260.445 88.324 261.093 87.1 261.561 85.624C262.029 84.148 262.263 82.42 262.263 80.44C262.263 78.784 262.065 77.272 261.669 75.904C261.309 74.5 260.769 73.294 260.049 72.286C259.365 71.278 258.519 70.522 257.511 70.018C256.503 69.478 255.369 69.208 254.109 69.208ZM242.229 92.158C242.409 92.158 242.643 92.158 242.931 92.158C243.255 92.158 243.597 92.158 243.957 92.158C244.317 92.122 244.659 92.086 244.983 92.05C245.343 91.978 245.649 91.906 245.901 91.834V69.424C245.469 69.352 244.929 69.298 244.281 69.262C243.669 69.226 243.111 69.208 242.607 69.208C241.383 69.208 240.231 69.46 239.151 69.964C238.107 70.432 237.189 71.17 236.397 72.178C235.605 73.15 234.975 74.374 234.507 75.85C234.075 77.326 233.859 79.036 233.859 80.98C233.859 82.708 234.057 84.274 234.453 85.678C234.849 87.046 235.407 88.216 236.127 89.188C236.883 90.16 237.765 90.898 238.773 91.402C239.817 91.906 240.969 92.158 242.229 92.158Z" fill="#016EAE"/>
<path d="M296.136 66.076H280.368V99.88H275.886V62.08H296.136V66.076Z" fill="#016EAE"/>
<path d="M301.934 62.08H322.454V66.076H306.416V77.416C307.028 77.308 307.784 77.2 308.684 77.092C309.584 76.984 310.448 76.93 311.276 76.93C313.112 76.93 314.858 77.11 316.514 77.47C318.17 77.794 319.628 78.37 320.888 79.198C322.148 80.026 323.138 81.16 323.858 82.6C324.614 84.004 324.992 85.786 324.992 87.946C324.992 90.106 324.614 91.978 323.858 93.562C323.102 95.11 322.094 96.388 320.834 97.396C319.574 98.368 318.098 99.106 316.406 99.61C314.75 100.078 313.004 100.312 311.168 100.312C310.556 100.312 309.854 100.294 309.062 100.258C308.306 100.258 307.496 100.222 306.632 100.15C305.804 100.078 304.976 99.988 304.148 99.88C303.356 99.808 302.618 99.682 301.934 99.502V62.08ZM311.708 96.424C312.86 96.424 313.958 96.262 315.002 95.938C316.046 95.614 316.946 95.146 317.702 94.534C318.494 93.886 319.106 93.076 319.538 92.104C320.006 91.132 320.24 89.998 320.24 88.702C320.24 87.046 319.97 85.714 319.43 84.706C318.926 83.662 318.242 82.852 317.378 82.276C316.514 81.7 315.506 81.322 314.354 81.142C313.238 80.926 312.068 80.818 310.844 80.818C310.52 80.818 310.142 80.836 309.71 80.872C309.278 80.908 308.846 80.944 308.414 80.98C307.982 81.016 307.586 81.07 307.226 81.142C306.866 81.178 306.596 81.214 306.416 81.25V96.1C306.668 96.172 306.992 96.226 307.388 96.262C307.82 96.298 308.27 96.334 308.738 96.37C309.242 96.406 309.746 96.424 310.25 96.424C310.754 96.424 311.24 96.424 311.708 96.424Z" fill="#016EAE"/>
<path d="M332.218 80.98C332.218 74.68 333.55 69.856 336.214 66.508C338.878 63.124 342.676 61.432 347.608 61.432C350.272 61.432 352.576 61.9 354.52 62.836C356.464 63.772 358.066 65.104 359.326 66.832C360.622 68.524 361.576 70.576 362.188 72.988C362.8 75.364 363.106 78.028 363.106 80.98C363.106 87.28 361.756 92.122 359.056 95.506C356.392 98.854 352.576 100.528 347.608 100.528C344.98 100.528 342.694 100.06 340.75 99.124C338.842 98.188 337.24 96.874 335.944 95.182C334.684 93.454 333.748 91.402 333.136 89.026C332.524 86.614 332.218 83.932 332.218 80.98ZM336.97 80.98C336.97 83.068 337.168 85.048 337.564 86.92C337.996 88.792 338.644 90.448 339.508 91.888C340.372 93.292 341.47 94.426 342.802 95.29C344.17 96.118 345.772 96.532 347.608 96.532C350.956 96.532 353.584 95.272 355.492 92.752C357.4 90.196 358.354 86.272 358.354 80.98C358.354 78.928 358.138 76.966 357.706 75.094C357.31 73.186 356.662 71.53 355.762 70.126C354.898 68.686 353.782 67.552 352.414 66.724C351.082 65.86 349.48 65.428 347.608 65.428C344.296 65.428 341.686 66.706 339.778 69.262C337.906 71.782 336.97 75.688 336.97 80.98Z" fill="#016EAE"/>
<path d="M382.072 82.006L383.476 86.812H383.746L384.826 81.844L392.062 62.08H396.652L387.094 86.65C386.122 89.206 385.258 91.348 384.502 93.076C383.782 94.768 383.044 96.154 382.288 97.234C381.532 98.278 380.722 99.034 379.858 99.502C378.994 99.934 377.932 100.15 376.672 100.15C375.484 100.15 374.53 100.06 373.81 99.88C373.126 99.664 372.478 99.358 371.866 98.962L373.216 95.236C373.936 95.632 374.602 95.884 375.214 95.992C375.826 96.1 376.384 96.154 376.888 96.154C377.896 96.154 378.742 95.65 379.426 94.642C380.11 93.598 380.704 92.068 381.208 90.052L367.222 62.08H372.406L382.072 82.006Z" fill="#016EAE"/>
<path d="M441.151 70.72C441.151 71.62 441.007 72.538 440.719 73.474C440.431 74.41 439.999 75.292 439.423 76.12C438.847 76.912 438.109 77.614 437.209 78.226C436.309 78.838 435.247 79.306 434.023 79.63V79.846C435.103 80.026 436.129 80.332 437.101 80.764C438.109 81.196 438.991 81.79 439.747 82.546C440.503 83.302 441.115 84.22 441.583 85.3C442.051 86.38 442.285 87.658 442.285 89.134C442.285 91.078 441.871 92.77 441.043 94.21C440.251 95.614 439.189 96.766 437.857 97.666C436.561 98.566 435.067 99.232 433.375 99.664C431.683 100.096 429.955 100.312 428.191 100.312C427.579 100.312 426.859 100.312 426.031 100.312C425.203 100.312 424.339 100.276 423.439 100.204C422.539 100.168 421.639 100.096 420.739 99.988C419.839 99.916 419.047 99.79 418.363 99.61V62.404C419.695 62.188 421.243 62.008 423.007 61.864C424.771 61.72 426.697 61.648 428.785 61.648C430.189 61.648 431.611 61.774 433.051 62.026C434.527 62.242 435.859 62.692 437.047 63.376C438.235 64.024 439.207 64.942 439.963 66.13C440.755 67.318 441.151 68.848 441.151 70.72ZM428.623 96.424C429.775 96.424 430.891 96.298 431.971 96.046C433.051 95.758 434.005 95.326 434.833 94.75C435.661 94.138 436.309 93.4 436.777 92.536C437.281 91.672 437.533 90.646 437.533 89.458C437.533 87.982 437.227 86.794 436.615 85.894C436.039 84.994 435.265 84.292 434.293 83.788C433.357 83.284 432.295 82.942 431.107 82.762C429.919 82.582 428.731 82.492 427.543 82.492H422.845V96.046C423.097 96.118 423.457 96.172 423.925 96.208C424.393 96.244 424.897 96.28 425.437 96.316C425.977 96.352 426.535 96.388 427.111 96.424C427.687 96.424 428.191 96.424 428.623 96.424ZM425.653 78.712C426.265 78.712 427.003 78.694 427.867 78.658C428.731 78.622 429.451 78.568 430.027 78.496C430.891 78.208 431.701 77.866 432.457 77.47C433.213 77.038 433.879 76.552 434.455 76.012C435.067 75.436 435.535 74.788 435.859 74.068C436.219 73.312 436.399 72.502 436.399 71.638C436.399 70.45 436.165 69.478 435.697 68.722C435.265 67.93 434.671 67.3 433.915 66.832C433.159 66.364 432.295 66.04 431.323 65.86C430.351 65.644 429.361 65.536 428.353 65.536C427.165 65.536 426.067 65.572 425.059 65.644C424.087 65.68 423.349 65.752 422.845 65.86V78.712H425.653Z" fill="#016EAE"/>
<path d="M450.492 80.98C450.492 74.68 451.824 69.856 454.488 66.508C457.152 63.124 460.95 61.432 465.882 61.432C468.546 61.432 470.85 61.9 472.794 62.836C474.738 63.772 476.34 65.104 477.6 66.832C478.896 68.524 479.85 70.576 480.462 72.988C481.074 75.364 481.38 78.028 481.38 80.98C481.38 87.28 480.03 92.122 477.33 95.506C474.666 98.854 470.85 100.528 465.882 100.528C463.254 100.528 460.968 100.06 459.024 99.124C457.116 98.188 455.514 96.874 454.218 95.182C452.958 93.454 452.022 91.402 451.41 89.026C450.798 86.614 450.492 83.932 450.492 80.98ZM455.244 80.98C455.244 83.068 455.443 85.048 455.839 86.92C456.271 88.792 456.919 90.448 457.783 91.888C458.647 93.292 459.744 94.426 461.076 95.29C462.444 96.118 464.046 96.532 465.882 96.532C469.23 96.532 471.858 95.272 473.766 92.752C475.674 90.196 476.628 86.272 476.628 80.98C476.628 78.928 476.413 76.966 475.98 75.094C475.585 73.186 474.936 71.53 474.036 70.126C473.172 68.686 472.056 67.552 470.688 66.724C469.356 65.86 467.754 65.428 465.882 65.428C462.57 65.428 459.96 66.706 458.052 69.262C456.18 71.782 455.244 75.688 455.244 80.98Z" fill="#016EAE"/>
<path d="M512.171 78.55H518.867C519.155 73.042 520.541 68.812 523.025 65.86C525.509 62.908 529.055 61.432 533.663 61.432C536.291 61.432 538.541 61.9 540.413 62.836C542.285 63.772 543.797 65.104 544.949 66.832C546.101 68.524 546.947 70.576 547.487 72.988C548.027 75.364 548.297 78.028 548.297 80.98C548.297 87.28 547.091 92.122 544.679 95.506C542.267 98.854 538.595 100.528 533.663 100.528C531.179 100.528 529.019 100.114 527.183 99.286C525.347 98.422 523.817 97.216 522.593 95.668C521.405 94.084 520.505 92.194 519.893 89.998C519.281 87.766 518.921 85.282 518.813 82.546H512.171V99.88H507.689V62.08H512.171V78.55ZM523.565 80.98C523.565 83.068 523.745 85.048 524.105 86.92C524.465 88.792 525.041 90.448 525.833 91.888C526.625 93.292 527.651 94.426 528.911 95.29C530.207 96.118 531.791 96.532 533.663 96.532C537.011 96.532 539.495 95.272 541.115 92.752C542.735 90.232 543.545 86.308 543.545 80.98C543.545 78.928 543.383 76.966 543.059 75.094C542.735 73.186 542.177 71.53 541.385 70.126C540.629 68.686 539.621 67.552 538.361 66.724C537.101 65.86 535.535 65.428 533.663 65.428C530.315 65.428 527.795 66.706 526.103 69.262C524.411 71.782 523.565 75.688 523.565 80.98Z" fill="#016EAE"/>
<path d="M578.298 66.076H562.53V99.88H558.048V62.08H578.298V66.076Z" fill="#016EAE"/>
<path d="M596.37 82.006L597.774 86.812H598.044L599.124 81.844L606.36 62.08H610.95L601.392 86.65C600.42 89.206 599.556 91.348 598.8 93.076C598.08 94.768 597.342 96.154 596.586 97.234C595.83 98.278 595.02 99.034 594.156 99.502C593.292 99.934 592.23 100.15 590.97 100.15C589.782 100.15 588.828 100.06 588.108 99.88C587.424 99.664 586.776 99.358 586.164 98.962L587.514 95.236C588.234 95.632 588.9 95.884 589.512 95.992C590.124 96.1 590.682 96.154 591.186 96.154C592.194 96.154 593.04 95.65 593.724 94.642C594.408 93.598 595.002 92.068 595.506 90.052L581.52 62.08H586.704L596.37 82.006Z" fill="#016EAE"/>
<path d="M245.847 95.668C245.235 95.776 244.515 95.848 243.687 95.884C242.895 95.92 242.139 95.938 241.419 95.938C239.727 95.938 238.125 95.65 236.613 95.074C235.137 94.498 233.841 93.598 232.725 92.374C231.645 91.15 230.781 89.602 230.133 87.73C229.521 85.822 229.215 83.572 229.215 80.98C229.215 78.532 229.521 76.354 230.133 74.446C230.781 72.502 231.681 70.864 232.833 69.532C234.021 68.2 235.425 67.192 237.045 66.508C238.665 65.788 240.465 65.428 242.445 65.428C242.913 65.428 243.489 65.446 244.173 65.482C244.893 65.518 245.451 65.572 245.847 65.644V61H250.275V65.806C250.923 65.626 251.679 65.518 252.543 65.482C253.443 65.446 254.181 65.428 254.757 65.428C256.485 65.428 258.087 65.752 259.563 66.4C261.039 67.012 262.317 67.948 263.397 69.208C264.513 70.432 265.377 71.998 265.989 73.906C266.601 75.778 266.907 77.956 266.907 80.44C266.907 82.996 266.547 85.246 265.827 87.19C265.143 89.134 264.207 90.754 263.019 92.05C261.831 93.346 260.445 94.318 258.861 94.966C257.277 95.614 255.585 95.938 253.785 95.938C253.389 95.938 252.795 95.92 252.003 95.884C251.247 95.812 250.671 95.704 250.275 95.56V100.96H245.847V95.668ZM254.109 69.208C253.605 69.208 252.957 69.226 252.165 69.262C251.373 69.298 250.725 69.406 250.221 69.586V91.996C250.581 92.068 251.049 92.122 251.625 92.158C252.237 92.158 252.831 92.158 253.407 92.158C254.631 92.158 255.765 91.924 256.809 91.456C257.889 90.988 258.825 90.268 259.617 89.296C260.445 88.324 261.093 87.1 261.561 85.624C262.029 84.148 262.263 82.42 262.263 80.44C262.263 78.784 262.065 77.272 261.669 75.904C261.309 74.5 260.769 73.294 260.049 72.286C259.365 71.278 258.519 70.522 257.511 70.018C256.503 69.478 255.369 69.208 254.109 69.208ZM242.229 92.158C242.409 92.158 242.643 92.158 242.931 92.158C243.255 92.158 243.597 92.158 243.957 92.158C244.317 92.122 244.659 92.086 244.983 92.05C245.343 91.978 245.649 91.906 245.901 91.834V69.424C245.469 69.352 244.929 69.298 244.281 69.262C243.669 69.226 243.111 69.208 242.607 69.208C241.383 69.208 240.231 69.46 239.151 69.964C238.107 70.432 237.189 71.17 236.397 72.178C235.605 73.15 234.975 74.374 234.507 75.85C234.075 77.326 233.859 79.036 233.859 80.98C233.859 82.708 234.057 84.274 234.453 85.678C234.849 87.046 235.407 88.216 236.127 89.188C236.883 90.16 237.765 90.898 238.773 91.402C239.817 91.906 240.969 92.158 242.229 92.158Z" stroke="#016EAE" mask="url(#path-5-outside-1_26_373)"/>
<path d="M296.136 66.076H280.368V99.88H275.886V62.08H296.136V66.076Z" stroke="#016EAE" mask="url(#path-5-outside-1_26_373)"/>
<path d="M301.934 62.08H322.454V66.076H306.416V77.416C307.028 77.308 307.784 77.2 308.684 77.092C309.584 76.984 310.448 76.93 311.276 76.93C313.112 76.93 314.858 77.11 316.514 77.47C318.17 77.794 319.628 78.37 320.888 79.198C322.148 80.026 323.138 81.16 323.858 82.6C324.614 84.004 324.992 85.786 324.992 87.946C324.992 90.106 324.614 91.978 323.858 93.562C323.102 95.11 322.094 96.388 320.834 97.396C319.574 98.368 318.098 99.106 316.406 99.61C314.75 100.078 313.004 100.312 311.168 100.312C310.556 100.312 309.854 100.294 309.062 100.258C308.306 100.258 307.496 100.222 306.632 100.15C305.804 100.078 304.976 99.988 304.148 99.88C303.356 99.808 302.618 99.682 301.934 99.502V62.08ZM311.708 96.424C312.86 96.424 313.958 96.262 315.002 95.938C316.046 95.614 316.946 95.146 317.702 94.534C318.494 93.886 319.106 93.076 319.538 92.104C320.006 91.132 320.24 89.998 320.24 88.702C320.24 87.046 319.97 85.714 319.43 84.706C318.926 83.662 318.242 82.852 317.378 82.276C316.514 81.7 315.506 81.322 314.354 81.142C313.238 80.926 312.068 80.818 310.844 80.818C310.52 80.818 310.142 80.836 309.71 80.872C309.278 80.908 308.846 80.944 308.414 80.98C307.982 81.016 307.586 81.07 307.226 81.142C306.866 81.178 306.596 81.214 306.416 81.25V96.1C306.668 96.172 306.992 96.226 307.388 96.262C307.82 96.298 308.27 96.334 308.738 96.37C309.242 96.406 309.746 96.424 310.25 96.424C310.754 96.424 311.24 96.424 311.708 96.424Z" stroke="#016EAE" mask="url(#path-5-outside-1_26_373)"/>
<path d="M332.218 80.98C332.218 74.68 333.55 69.856 336.214 66.508C338.878 63.124 342.676 61.432 347.608 61.432C350.272 61.432 352.576 61.9 354.52 62.836C356.464 63.772 358.066 65.104 359.326 66.832C360.622 68.524 361.576 70.576 362.188 72.988C362.8 75.364 363.106 78.028 363.106 80.98C363.106 87.28 361.756 92.122 359.056 95.506C356.392 98.854 352.576 100.528 347.608 100.528C344.98 100.528 342.694 100.06 340.75 99.124C338.842 98.188 337.24 96.874 335.944 95.182C334.684 93.454 333.748 91.402 333.136 89.026C332.524 86.614 332.218 83.932 332.218 80.98ZM336.97 80.98C336.97 83.068 337.168 85.048 337.564 86.92C337.996 88.792 338.644 90.448 339.508 91.888C340.372 93.292 341.47 94.426 342.802 95.29C344.17 96.118 345.772 96.532 347.608 96.532C350.956 96.532 353.584 95.272 355.492 92.752C357.4 90.196 358.354 86.272 358.354 80.98C358.354 78.928 358.138 76.966 357.706 75.094C357.31 73.186 356.662 71.53 355.762 70.126C354.898 68.686 353.782 67.552 352.414 66.724C351.082 65.86 349.48 65.428 347.608 65.428C344.296 65.428 341.686 66.706 339.778 69.262C337.906 71.782 336.97 75.688 336.97 80.98Z" stroke="#016EAE" mask="url(#path-5-outside-1_26_373)"/>
<path d="M382.072 82.006L383.476 86.812H383.746L384.826 81.844L392.062 62.08H396.652L387.094 86.65C386.122 89.206 385.258 91.348 384.502 93.076C383.782 94.768 383.044 96.154 382.288 97.234C381.532 98.278 380.722 99.034 379.858 99.502C378.994 99.934 377.932 100.15 376.672 100.15C375.484 100.15 374.53 100.06 373.81 99.88C373.126 99.664 372.478 99.358 371.866 98.962L373.216 95.236C373.936 95.632 374.602 95.884 375.214 95.992C375.826 96.1 376.384 96.154 376.888 96.154C377.896 96.154 378.742 95.65 379.426 94.642C380.11 93.598 380.704 92.068 381.208 90.052L367.222 62.08H372.406L382.072 82.006Z" stroke="#016EAE" mask="url(#path-5-outside-1_26_373)"/>
<path d="M441.151 70.72C441.151 71.62 441.007 72.538 440.719 73.474C440.431 74.41 439.999 75.292 439.423 76.12C438.847 76.912 438.109 77.614 437.209 78.226C436.309 78.838 435.247 79.306 434.023 79.63V79.846C435.103 80.026 436.129 80.332 437.101 80.764C438.109 81.196 438.991 81.79 439.747 82.546C440.503 83.302 441.115 84.22 441.583 85.3C442.051 86.38 442.285 87.658 442.285 89.134C442.285 91.078 441.871 92.77 441.043 94.21C440.251 95.614 439.189 96.766 437.857 97.666C436.561 98.566 435.067 99.232 433.375 99.664C431.683 100.096 429.955 100.312 428.191 100.312C427.579 100.312 426.859 100.312 426.031 100.312C425.203 100.312 424.339 100.276 423.439 100.204C422.539 100.168 421.639 100.096 420.739 99.988C419.839 99.916 419.047 99.79 418.363 99.61V62.404C419.695 62.188 421.243 62.008 423.007 61.864C424.771 61.72 426.697 61.648 428.785 61.648C430.189 61.648 431.611 61.774 433.051 62.026C434.527 62.242 435.859 62.692 437.047 63.376C438.235 64.024 439.207 64.942 439.963 66.13C440.755 67.318 441.151 68.848 441.151 70.72ZM428.623 96.424C429.775 96.424 430.891 96.298 431.971 96.046C433.051 95.758 434.005 95.326 434.833 94.75C435.661 94.138 436.309 93.4 436.777 92.536C437.281 91.672 437.533 90.646 437.533 89.458C437.533 87.982 437.227 86.794 436.615 85.894C436.039 84.994 435.265 84.292 434.293 83.788C433.357 83.284 432.295 82.942 431.107 82.762C429.919 82.582 428.731 82.492 427.543 82.492H422.845V96.046C423.097 96.118 423.457 96.172 423.925 96.208C424.393 96.244 424.897 96.28 425.437 96.316C425.977 96.352 426.535 96.388 427.111 96.424C427.687 96.424 428.191 96.424 428.623 96.424ZM425.653 78.712C426.265 78.712 427.003 78.694 427.867 78.658C428.731 78.622 429.451 78.568 430.027 78.496C430.891 78.208 431.701 77.866 432.457 77.47C433.213 77.038 433.879 76.552 434.455 76.012C435.067 75.436 435.535 74.788 435.859 74.068C436.219 73.312 436.399 72.502 436.399 71.638C436.399 70.45 436.165 69.478 435.697 68.722C435.265 67.93 434.671 67.3 433.915 66.832C433.159 66.364 432.295 66.04 431.323 65.86C430.351 65.644 429.361 65.536 428.353 65.536C427.165 65.536 426.067 65.572 425.059 65.644C424.087 65.68 423.349 65.752 422.845 65.86V78.712H425.653Z" stroke="#016EAE" mask="url(#path-5-outside-1_26_373)"/>
<path d="M450.492 80.98C450.492 74.68 451.824 69.856 454.488 66.508C457.152 63.124 460.95 61.432 465.882 61.432C468.546 61.432 470.85 61.9 472.794 62.836C474.738 63.772 476.34 65.104 477.6 66.832C478.896 68.524 479.85 70.576 480.462 72.988C481.074 75.364 481.38 78.028 481.38 80.98C481.38 87.28 480.03 92.122 477.33 95.506C474.666 98.854 470.85 100.528 465.882 100.528C463.254 100.528 460.968 100.06 459.024 99.124C457.116 98.188 455.514 96.874 454.218 95.182C452.958 93.454 452.022 91.402 451.41 89.026C450.798 86.614 450.492 83.932 450.492 80.98ZM455.244 80.98C455.244 83.068 455.443 85.048 455.839 86.92C456.271 88.792 456.919 90.448 457.783 91.888C458.647 93.292 459.744 94.426 461.076 95.29C462.444 96.118 464.046 96.532 465.882 96.532C469.23 96.532 471.858 95.272 473.766 92.752C475.674 90.196 476.628 86.272 476.628 80.98C476.628 78.928 476.413 76.966 475.98 75.094C475.585 73.186 474.936 71.53 474.036 70.126C473.172 68.686 472.056 67.552 470.688 66.724C469.356 65.86 467.754 65.428 465.882 65.428C462.57 65.428 459.96 66.706 458.052 69.262C456.18 71.782 455.244 75.688 455.244 80.98Z" stroke="#016EAE" mask="url(#path-5-outside-1_26_373)"/>
<path d="M512.171 78.55H518.867C519.155 73.042 520.541 68.812 523.025 65.86C525.509 62.908 529.055 61.432 533.663 61.432C536.291 61.432 538.541 61.9 540.413 62.836C542.285 63.772 543.797 65.104 544.949 66.832C546.101 68.524 546.947 70.576 547.487 72.988C548.027 75.364 548.297 78.028 548.297 80.98C548.297 87.28 547.091 92.122 544.679 95.506C542.267 98.854 538.595 100.528 533.663 100.528C531.179 100.528 529.019 100.114 527.183 99.286C525.347 98.422 523.817 97.216 522.593 95.668C521.405 94.084 520.505 92.194 519.893 89.998C519.281 87.766 518.921 85.282 518.813 82.546H512.171V99.88H507.689V62.08H512.171V78.55ZM523.565 80.98C523.565 83.068 523.745 85.048 524.105 86.92C524.465 88.792 525.041 90.448 525.833 91.888C526.625 93.292 527.651 94.426 528.911 95.29C530.207 96.118 531.791 96.532 533.663 96.532C537.011 96.532 539.495 95.272 541.115 92.752C542.735 90.232 543.545 86.308 543.545 80.98C543.545 78.928 543.383 76.966 543.059 75.094C542.735 73.186 542.177 71.53 541.385 70.126C540.629 68.686 539.621 67.552 538.361 66.724C537.101 65.86 535.535 65.428 533.663 65.428C530.315 65.428 527.795 66.706 526.103 69.262C524.411 71.782 523.565 75.688 523.565 80.98Z" stroke="#016EAE" mask="url(#path-5-outside-1_26_373)"/>
<path d="M578.298 66.076H562.53V99.88H558.048V62.08H578.298V66.076Z" stroke="#016EAE" mask="url(#path-5-outside-1_26_373)"/>
<path d="M596.37 82.006L597.774 86.812H598.044L599.124 81.844L606.36 62.08H610.95L601.392 86.65C600.42 89.206 599.556 91.348 598.8 93.076C598.08 94.768 597.342 96.154 596.586 97.234C595.83 98.278 595.02 99.034 594.156 99.502C593.292 99.934 592.23 100.15 590.97 100.15C589.782 100.15 588.828 100.06 588.108 99.88C587.424 99.664 586.776 99.358 586.164 98.962L587.514 95.236C588.234 95.632 588.9 95.884 589.512 95.992C590.124 96.1 590.682 96.154 591.186 96.154C592.194 96.154 593.04 95.65 593.724 94.642C594.408 93.598 595.002 92.068 595.506 90.052L581.52 62.08H586.704L596.37 82.006Z" stroke="#016EAE" mask="url(#path-5-outside-1_26_373)"/>
</svg>
